<?xml version="1.0" standalone="no"?><!DOCTYPE svg PUBLIC "-//W3C//DTD SVG 1.1//EN" "http://www.w3.org/Graphics/SVG/1.1/DTD/svg11.dtd"><svg width="100%" height="100%" viewBox="0 0 310 70" version="1.1" xmlns="http://www.w3.org/2000/svg" xmlns:xlink="http://www.w3.org/1999/xlink" xml:space="preserve" style="fill-rule:evenodd;clip-rule:evenodd;stroke-linejoin:round;stroke-miterlimit:1.41421;"><g><rect x="5" y="20" width="30" height="20" style="fill:#a50026;"/><rect x="35.007" y="20" width="30" height="20" style="fill:#d73027;"/><rect x="65.206" y="20" width="30" height="20" style="fill:#f46f43;"/><rect x="95" y="20" width="30" height="20" style="fill:#fdae61;"/><rect x="125" y="20" width="30" height="20" style="fill:#fee090;"/><rect x="155" y="20" width="30" height="20" style="fill:#e0f3f8;"/><rect x="185" y="20" width="30" height="20" style="fill:#abd9e9;"/><rect x="215" y="20" width="30" height="20" style="fill:#74add1;"/><rect x="245" y="20" width="30" height="20" style="fill:#4575b4;"/><rect x="275" y="20" width="30" height="20" style="fill:#313695;"/></g><rect x="5" y="44.153" width="30" height="20" style="fill:#093;"/><g transform="matrix(1,0,0,1,-285.463,41.012)"><text x="323.795px" y="11.557px" style="font-family:'ArialMT';font-size:6px;fill:#000;">T<tspan x="326.795px 330.132px " y="11.557px 11.557px ">ar</tspan>geted</text><text x="323.795px" y="17.753px" style="font-family:'ArialMT';font-size:6px;fill:#000;">Market</text></g><g transform="matrix(1,0,0,1,-287.299,-1.41211)"><text x="323.795px" y="11.557px" style="font-family:'ArialMT';font-size:6px;fill:#000;">-$1,500 to</text><text x="323.795px" y="17.753px" style="font-family:'ArialMT';font-size:6px;fill:#000;">-$1,999</text></g><g transform="matrix(1,0,0,1,-257.099,-1.41211)"><text x="323.795px" y="11.557px" style="font-family:'ArialMT';font-size:6px;fill:#000;">-$1,000 to</text><text x="323.795px" y="17.753px" style="font-family:'ArialMT';font-size:6px;fill:#000;">-$1,499</text></g><g transform="matrix(1,0,0,1,-225.637,-1.41211)"><text x="323.795px" y="11.557px" style="font-family:'ArialMT';font-size:6px;fill:#000;">- $500 to</text><text x="323.795px" y="17.753px" style="font-family:'ArialMT';font-size:6px;fill:#000;">- $999</text></g><g transform="matrix(1,0,0,1,-192.968,-1.41211)"><text x="328.796px" y="11.557px" style="font-family:'ArialMT';font-size:6px;fill:#000;">$0 to</text><text x="323.795px" y="17.753px" style="font-family:'ArialMT';font-size:6px;fill:#000;">- $499</text></g><g transform="matrix(1,0,0,1,-161.468,-1.41211)"><text x="325.462px" y="11.557px" style="font-family:'ArialMT';font-size:6px;fill:#000;">$0 to</text><text x="323.795px" y="17.753px" style="font-family:'ArialMT';font-size:6px;fill:#000;">-$499</text></g><g transform="matrix(1,0,0,1,-133.804,-1.41211)"><text x="323.795px" y="11.557px" style="font-family:'ArialMT';font-size:6px;fill:#000;">$500 to</text><text x="323.795px" y="17.753px" style="font-family:'ArialMT';font-size:6px;fill:#000;">$999</text></g><g transform="matrix(1,0,0,1,-106.306,-1.41211)"><text x="323.795px" y="11.557px" style="font-family:'ArialMT';font-size:6px;fill:#000;">$1,000 to</text><text x="323.795px" y="17.753px" style="font-family:'ArialMT';font-size:6px;fill:#000;">$1,499</text></g><g transform="matrix(1,0,0,1,-76.3063,-1.41211)"><text x="323.795px" y="11.557px" style="font-family:'ArialMT';font-size:6px;fill:#000;">$1,500 to</text><text x="323.795px" y="17.753px" style="font-family:'ArialMT';font-size:6px;fill:#000;">$1,999</text></g><text x="7.24px" y="13.243px" style="font-family:'ArialMT';font-size:6px;fill:#000;">&lt; -$2,000</text><text x="278.239px" y="13.243px" style="font-family:'ArialMT';font-size:6px;fill:#000;">&gt; $2,000</text></svg>